<mxfile host="app.diagrams.net" modified="2023-04-19T16:51:30.014Z" agent="Mozilla/5.0 (Windows NT 10.0; Win64; x64) AppleWebKit/537.36 (KHTML, like Gecko) Chrome/112.0.0.0 Safari/537.36" etag="smwyXicqBfpOP3dUNRVG" version="21.2.0" type="google">
  <diagram name="Página-1" id="PmI1Su2HJkBsJeQrpeKJ">
    <mxGraphModel grid="1" page="1" gridSize="10" guides="1" tooltips="1" connect="1" arrows="1" fold="1" pageScale="1" pageWidth="827" pageHeight="1169" math="0" shadow="0">
      <root>
        <mxCell id="0" />
        <mxCell id="1" parent="0" />
        <mxCell id="IpSbA7NAYXDVtMhJjmJe-2" value="" style="shape=umlActor;verticalLabelPosition=bottom;verticalAlign=top;html=1;outlineConnect=0;fillColor=default;" vertex="1" parent="1">
          <mxGeometry x="159" y="110" width="40" height="80" as="geometry" />
        </mxCell>
        <mxCell id="IpSbA7NAYXDVtMhJjmJe-3" value="" style="shape=umlActor;verticalLabelPosition=bottom;verticalAlign=top;html=1;outlineConnect=0;" vertex="1" parent="1">
          <mxGeometry x="629" y="110" width="40" height="80" as="geometry" />
        </mxCell>
        <mxCell id="IpSbA7NAYXDVtMhJjmJe-4" value="" style="rounded=1;whiteSpace=wrap;html=1;strokeWidth=1;gradientColor=none;fillColor=none;" vertex="1" parent="1">
          <mxGeometry x="239" y="50" width="350" height="500" as="geometry" />
        </mxCell>
        <mxCell id="IpSbA7NAYXDVtMhJjmJe-6" value="&lt;font style=&quot;font-size: 14px;&quot;&gt;Iniciar sesión&lt;br&gt;(autenticación)&lt;br&gt;&lt;/font&gt;" style="ellipse;whiteSpace=wrap;html=1;" vertex="1" parent="1">
          <mxGeometry x="354" y="130" width="120" height="60" as="geometry" />
        </mxCell>
        <mxCell id="IpSbA7NAYXDVtMhJjmJe-10" value="&lt;font style=&quot;font-size: 14px;&quot;&gt;Gestión &lt;br&gt;candidaturas&lt;br&gt;&lt;/font&gt;" style="ellipse;whiteSpace=wrap;html=1;" vertex="1" parent="1">
          <mxGeometry x="439" y="290" width="120" height="60" as="geometry" />
        </mxCell>
        <mxCell id="IpSbA7NAYXDVtMhJjmJe-11" value="&lt;font style=&quot;font-size: 14px;&quot;&gt;Gestión &lt;br&gt;alumnos&lt;/font&gt;" style="ellipse;whiteSpace=wrap;html=1;" vertex="1" parent="1">
          <mxGeometry x="439" y="210" width="120" height="60" as="geometry" />
        </mxCell>
        <mxCell id="IpSbA7NAYXDVtMhJjmJe-12" value="&lt;font style=&quot;font-size: 14px;&quot;&gt;Subir su CV&lt;/font&gt;" style="ellipse;whiteSpace=wrap;html=1;" vertex="1" parent="1">
          <mxGeometry x="269" y="370" width="120" height="60" as="geometry" />
        </mxCell>
        <mxCell id="IpSbA7NAYXDVtMhJjmJe-13" value="&lt;font style=&quot;font-size: 14px;&quot;&gt;Consultar &lt;br&gt;candidatura&lt;/font&gt;" style="ellipse;whiteSpace=wrap;html=1;" vertex="1" parent="1">
          <mxGeometry x="269" y="290" width="120" height="60" as="geometry" />
        </mxCell>
        <mxCell id="IpSbA7NAYXDVtMhJjmJe-14" value="&lt;font style=&quot;font-size: 14px;&quot;&gt;Gestión empresas y sedes&lt;/font&gt;" style="ellipse;whiteSpace=wrap;html=1;" vertex="1" parent="1">
          <mxGeometry x="439" y="370" width="120" height="60" as="geometry" />
        </mxCell>
        <mxCell id="IpSbA7NAYXDVtMhJjmJe-15" value="&lt;span style=&quot;font-size: 14px;&quot;&gt;Editar y &lt;br&gt;visualizar perfil&lt;/span&gt;" style="ellipse;whiteSpace=wrap;html=1;" vertex="1" parent="1">
          <mxGeometry x="269" y="450" width="120" height="60" as="geometry" />
        </mxCell>
        <mxCell id="IpSbA7NAYXDVtMhJjmJe-26" value="&lt;b&gt;&lt;font style=&quot;font-size: 14px;&quot;&gt;ALUMNO&lt;/font&gt;&lt;/b&gt;" style="text;html=1;strokeColor=none;fillColor=none;align=center;verticalAlign=middle;whiteSpace=wrap;rounded=0;" vertex="1" parent="1">
          <mxGeometry x="149" y="80" width="60" height="30" as="geometry" />
        </mxCell>
        <mxCell id="IpSbA7NAYXDVtMhJjmJe-27" value="&lt;b&gt;&lt;font style=&quot;font-size: 14px;&quot;&gt;DOCENTE&lt;/font&gt;&lt;/b&gt;" style="text;html=1;strokeColor=none;fillColor=none;align=center;verticalAlign=middle;whiteSpace=wrap;rounded=0;" vertex="1" parent="1">
          <mxGeometry x="619" y="80" width="60" height="30" as="geometry" />
        </mxCell>
        <mxCell id="IpSbA7NAYXDVtMhJjmJe-28" value="&lt;b&gt;&lt;font style=&quot;font-size: 24px;&quot;&gt;GESTION FCT APP&lt;/font&gt;&lt;/b&gt;" style="text;html=1;strokeColor=none;fillColor=none;align=center;verticalAlign=middle;whiteSpace=wrap;rounded=0;" vertex="1" parent="1">
          <mxGeometry x="292.75" y="78" width="242.5" height="30" as="geometry" />
        </mxCell>
        <mxCell id="IpSbA7NAYXDVtMhJjmJe-29" value="" style="endArrow=none;html=1;rounded=0;" edge="1" parent="1" source="IpSbA7NAYXDVtMhJjmJe-13">
          <mxGeometry width="50" height="50" relative="1" as="geometry">
            <mxPoint x="154" y="250" as="sourcePoint" />
            <mxPoint x="199" y="180" as="targetPoint" />
          </mxGeometry>
        </mxCell>
        <mxCell id="IpSbA7NAYXDVtMhJjmJe-31" value="" style="endArrow=none;html=1;rounded=0;" edge="1" parent="1" source="IpSbA7NAYXDVtMhJjmJe-12" target="IpSbA7NAYXDVtMhJjmJe-2">
          <mxGeometry width="50" height="50" relative="1" as="geometry">
            <mxPoint x="359" y="260" as="sourcePoint" />
            <mxPoint x="409" y="210" as="targetPoint" />
            <Array as="points">
              <mxPoint x="230" y="360" />
            </Array>
          </mxGeometry>
        </mxCell>
        <mxCell id="IpSbA7NAYXDVtMhJjmJe-32" value="" style="endArrow=none;html=1;rounded=0;" edge="1" parent="1" source="IpSbA7NAYXDVtMhJjmJe-2" target="IpSbA7NAYXDVtMhJjmJe-15">
          <mxGeometry width="50" height="50" relative="1" as="geometry">
            <mxPoint x="159" y="420" as="sourcePoint" />
            <mxPoint x="209" y="370" as="targetPoint" />
            <Array as="points">
              <mxPoint x="190" y="390" />
            </Array>
          </mxGeometry>
        </mxCell>
        <mxCell id="IpSbA7NAYXDVtMhJjmJe-33" value="" style="endArrow=none;html=1;rounded=0;" edge="1" parent="1" source="IpSbA7NAYXDVtMhJjmJe-11">
          <mxGeometry width="50" height="50" relative="1" as="geometry">
            <mxPoint x="649" y="280" as="sourcePoint" />
            <mxPoint x="619" y="180" as="targetPoint" />
          </mxGeometry>
        </mxCell>
        <mxCell id="IpSbA7NAYXDVtMhJjmJe-34" value="" style="endArrow=none;html=1;rounded=0;" edge="1" parent="1" source="IpSbA7NAYXDVtMhJjmJe-10" target="IpSbA7NAYXDVtMhJjmJe-3">
          <mxGeometry width="50" height="50" relative="1" as="geometry">
            <mxPoint x="619" y="290" as="sourcePoint" />
            <mxPoint x="669" y="240" as="targetPoint" />
            <Array as="points">
              <mxPoint x="610" y="290" />
            </Array>
          </mxGeometry>
        </mxCell>
        <mxCell id="IpSbA7NAYXDVtMhJjmJe-35" value="" style="endArrow=none;html=1;rounded=0;exitX=1;exitY=0.5;exitDx=0;exitDy=0;" edge="1" parent="1" source="IpSbA7NAYXDVtMhJjmJe-14" target="IpSbA7NAYXDVtMhJjmJe-3">
          <mxGeometry width="50" height="50" relative="1" as="geometry">
            <mxPoint x="659" y="360" as="sourcePoint" />
            <mxPoint x="709" y="310" as="targetPoint" />
            <Array as="points">
              <mxPoint x="640" y="370" />
            </Array>
          </mxGeometry>
        </mxCell>
        <mxCell id="IpSbA7NAYXDVtMhJjmJe-36" value="" style="endArrow=none;html=1;rounded=0;" edge="1" parent="1" source="IpSbA7NAYXDVtMhJjmJe-2" target="IpSbA7NAYXDVtMhJjmJe-6">
          <mxGeometry width="50" height="50" relative="1" as="geometry">
            <mxPoint x="269" y="190" as="sourcePoint" />
            <mxPoint x="319" y="140" as="targetPoint" />
          </mxGeometry>
        </mxCell>
        <mxCell id="IpSbA7NAYXDVtMhJjmJe-37" value="" style="endArrow=none;html=1;rounded=0;" edge="1" parent="1" source="IpSbA7NAYXDVtMhJjmJe-6" target="IpSbA7NAYXDVtMhJjmJe-3">
          <mxGeometry width="50" height="50" relative="1" as="geometry">
            <mxPoint x="499" y="200" as="sourcePoint" />
            <mxPoint x="549" y="150" as="targetPoint" />
          </mxGeometry>
        </mxCell>
      </root>
    </mxGraphModel>
  </diagram>
</mxfile>
